<?xml version="1.0" encoding="UTF-8" standalone="no"?>
<!-- Created with Inkscape (http://www.inkscape.org/) -->

<svg
   xmlns:dc="http://purl.org/dc/elements/1.1/"
   xmlns:cc="http://creativecommons.org/ns#"
   xmlns:rdf="http://www.w3.org/1999/02/22-rdf-syntax-ns#"
   xmlns:svg="http://www.w3.org/2000/svg"
   xmlns="http://www.w3.org/2000/svg"
   xmlns:sodipodi="http://sodipodi.sourceforge.net/DTD/sodipodi-0.dtd"
   xmlns:inkscape="http://www.inkscape.org/namespaces/inkscape"
   width="16.404558mm"
   height="19mm"
   viewBox="0 0 16.404558 19"
   version="1.1"
   id="svg8"
   inkscape:version="0.92.3 (2405546, 2018-03-11)"
   sodipodi:docname="MusicFolderIconUnflattened.svg">
  <defs
     id="defs2" />
  <sodipodi:namedview
     id="base"
     pagecolor="#ffffff"
     bordercolor="#666666"
     borderopacity="1.0"
     inkscape:pageopacity="0.0"
     inkscape:pageshadow="2"
     inkscape:zoom="5.6568543"
     inkscape:cx="42.027787"
     inkscape:cy="60.29987"
     inkscape:document-units="mm"
     inkscape:current-layer="svg8"
     showgrid="false"
     fit-margin-top="0"
     fit-margin-left="0"
     fit-margin-right="0"
     fit-margin-bottom="0"
     inkscape:window-width="1920"
     inkscape:window-height="1137"
     inkscape:window-x="-8"
     inkscape:window-y="32"
     inkscape:window-maximized="1" />
  <metadata
     id="metadata5">
    <rdf:RDF>
      <cc:Work
         rdf:about="">
        <dc:format>image/svg+xml</dc:format>
        <dc:type
           rdf:resource="http://purl.org/dc/dcmitype/StillImage" />
        <dc:title></dc:title>
      </cc:Work>
    </rdf:RDF>
  </metadata>
  <path
     style="fill:none;stroke:#000000;stroke-width:0.80000001;stroke-linecap:butt;stroke-linejoin:round;stroke-miterlimit:4;stroke-dasharray:none;stroke-opacity:1"
     d="M -2.315,0.95872303 V 0.54533233 H 1.7859374 L 3.3072916,1.9343323 H 14.552 V 14.435999 l -16.867,-6.3e-5 z"
     id="path863"
     inkscape:connector-curvature="0"
     sodipodi:nodetypes="cccccccc" />
  <path
     sodipodi:type="inkscape:offset"
     inkscape:radius="0.3274053"
     inkscape:original="M 12.404297 -3.5605469 L 4.2246094 -1.609375 L 4.2265625 7.8476562 C 3.7029952 7.5458633 2.9867744 7.4319999 2.2402344 7.5292969 C 0.7010555 7.7303979 -0.5468793 8.7612984 -0.546875 9.8320312 C -0.5469086 10.902783 0.7010346 11.607373 2.2402344 11.40625 C 3.7731524 11.205698 5.0189107 10.180745 5.0273438 9.1132812 L 5.0273438 9.1054688 L 5.0273438 9.1035156 C 5.0273012 9.1024156 5.0273929 9.1008094 5.0273438 9.0996094 L 5.0273438 2.1054688 L 11.603516 0.5390625 L 11.603516 5.8984375 C 11.079948 5.5966455 10.363728 5.4827811 9.6171875 5.5800781 C 8.0780079 5.7811721 6.8300738 6.8120815 6.8300781 7.8828125 C 6.8300446 8.9535647 8.0779873 9.6581539 9.6171875 9.4570312 C 11.150105 9.2564802 12.395865 8.2315275 12.404297 7.1640625 L 12.404297 7.15625 L 12.404297 7.1542969 C 12.404255 7.1531969 12.404346 7.1515906 12.404297 7.1503906 L 12.404297 -3.5605469 z M 11.603516 -1.7519531 L 11.603516 -1.078125 L 5.0273438 0.48828125 L 5.0273438 -0.18554688 L 11.603516 -1.7519531 z "
     style="fill:#ffffff;fill-opacity:1;stroke:none;stroke-width:0.16028777;stroke-linecap:round;stroke-linejoin:round;stroke-miterlimit:4;stroke-dasharray:none;stroke-opacity:1"
     id="path867"
     d="m 12.394531,-3.8886719 a 0.32743804,0.32743804 0 0 0 -0.06641,0.00977 L 4.1484375,-1.9277344 A 0.32743804,0.32743804 0 0 0 3.8964844,-1.609375 l 0.00195,9.0058594 C 3.3813682,7.2164692 2.8088496,7.12537 2.1972656,7.2050781 1.367684,7.3134669 0.61799879,7.6410121 0.06054687,8.1015625 -0.49690504,8.5621129 -0.87500266,9.1694679 -0.875,9.8320312 c -2.079e-5,0.6625738 0.40352993,1.2207938 0.984375,1.5488278 0.58084507,0.328034 1.3442508,0.458008 2.1738281,0.34961 0.8262839,-0.108103 1.573882,-0.434342 2.1308594,-0.892578 0.5569774,-0.458237 0.9361901,-1.0624009 0.9414063,-1.7226566 a 0.32743804,0.32743804 0 0 0 0,-0.00195 v -0.00781 -0.00195 a 0.32743804,0.32743804 0 0 0 0,-0.00391 V 9.0917969 2.3632812 L 11.275391,0.953125 V 5.4472656 C 10.758322,5.2672507 10.185803,5.1761513 9.5742188,5.2558594 8.7446357,5.3642445 7.9949519,5.6917921 7.4375,6.1523438 6.8800481,6.6128954 6.5019505,7.2202499 6.5019531,7.8828125 6.5019324,8.5453859 6.9054831,9.1036066 7.4863281,9.4316406 8.0671732,9.7596746 8.8305788,9.8896484 9.6601562,9.78125 10.48644,9.6731476 11.234038,9.3469084 11.791016,8.8886719 12.347993,8.4304353 12.727206,7.8262721 12.732422,7.1660156 a 0.32743804,0.32743804 0 0 0 0,-0.00195 v -0.00781 -0.00195 a 0.32743804,0.32743804 0 0 0 0,-0.00391 v -0.00781 -10.703125 a 0.32743804,0.32743804 0 0 0 -0.337891,-0.328125 z m -1.11914,2.5507813 v 0.00195 L 5.3554688,0.07421875 v -0.0019531 z" />
  <path
     sodipodi:nodetypes="cccccccccccccccccccccccccccc"
     inkscape:connector-curvature="0"
     id="path829"
     d="m 12.404198,-3.5596647 -8.1786508,1.9494282 8.48e-5,9.4584729 C 3.7020647,7.5464434 2.9868786,7.4312934 2.2403386,7.5285904 0.70115972,7.7296914 -0.54659743,8.7607254 -0.54659313,9.8314583 -0.54662673,10.90221 0.70113882,11.607199 2.2403386,11.406076 3.7732566,11.205524 5.0180923,10.18144 5.0265253,9.1139766 h 5.77e-4 v -0.0085 l 1.765e-4,-0.0023 c -4.25e-5,-0.0011 -1.273e-4,-0.0021 -1.765e-4,-0.0033 V 2.1052211 L 11.602729,0.53814163 V 5.8989634 C 11.079161,5.5971714 10.363975,5.4820234 9.6174349,5.5793204 8.0782553,5.7804144 6.830499,6.8114554 6.8305033,7.8821864 6.8304698,8.9529386 8.0782347,9.6579263 9.6174349,9.4568036 11.150352,9.2562526 12.395189,8.2321684 12.403621,7.1647034 h 5.77e-4 v -0.0085 l 1.77e-4,-0.0023 c -4.2e-5,-0.0011 -1.28e-4,-0.0021 -1.77e-4,-0.0033 z m -0.801473,1.8077057 v 0.673415 L 5.0271028,0.48878353 v -0.67366321 z"
     style="fill:#000000;fill-opacity:1;stroke:none;stroke-width:0.16028777;stroke-linecap:round;stroke-linejoin:round;stroke-miterlimit:4;stroke-dasharray:none;stroke-opacity:1" />
  <path
     style="color:#000000;font-style:normal;font-variant:normal;font-weight:normal;font-stretch:normal;font-size:medium;line-height:normal;font-family:sans-serif;font-variant-ligatures:normal;font-variant-position:normal;font-variant-caps:normal;font-variant-numeric:normal;font-variant-alternates:normal;font-feature-settings:normal;text-indent:0;text-align:start;text-decoration:none;text-decoration-line:none;text-decoration-style:solid;text-decoration-color:#000000;letter-spacing:normal;word-spacing:normal;text-transform:none;writing-mode:lr-tb;direction:ltr;text-orientation:mixed;dominant-baseline:auto;baseline-shift:baseline;text-anchor:start;white-space:normal;shape-padding:0;clip-rule:nonzero;display:inline;overflow:visible;visibility:visible;opacity:1;isolation:auto;mix-blend-mode:normal;color-interpolation:sRGB;color-interpolation-filters:linearRGB;solid-color:#000000;solid-opacity:1;vector-effect:none;fill:#fffffa;fill-opacity:1;fill-rule:nonzero;stroke:none;stroke-width:3.02362204;stroke-linecap:butt;stroke-linejoin:round;stroke-miterlimit:4;stroke-dasharray:none;stroke-dashoffset:0;stroke-opacity:1;color-rendering:auto;image-rendering:auto;shape-rendering:auto;text-rendering:auto;enable-background:accumulate"
     d="m 13.037109,19.222656 c -1.037773,-2.45e-4 -2.000462,0.572606 -2.496093,1.484375 L 9.693359,22.271484 -5.5742188,50.421875 H 60.632812 L 75.28125,23.416016 c 8e-6,-0.0026 8e-6,-0.0052 0,-0.0078 0.990009,-1.836774 -0.409504,-4.182509 -2.496094,-4.185547 z"
     transform="scale(0.26458333)"
     id="path881"
     inkscape:connector-curvature="0"
     sodipodi:nodetypes="ccccccccc" />
  <path
     style="color:#000000;font-style:normal;font-variant:normal;font-weight:normal;font-stretch:normal;font-size:medium;line-height:normal;font-family:sans-serif;font-variant-ligatures:normal;font-variant-position:normal;font-variant-caps:normal;font-variant-numeric:normal;font-variant-alternates:normal;font-feature-settings:normal;text-indent:0;text-align:start;text-decoration:none;text-decoration-line:none;text-decoration-style:solid;text-decoration-color:#000000;letter-spacing:normal;word-spacing:normal;text-transform:none;writing-mode:lr-tb;direction:ltr;text-orientation:mixed;dominant-baseline:auto;baseline-shift:baseline;text-anchor:start;white-space:normal;shape-padding:0;clip-rule:nonzero;display:inline;overflow:visible;visibility:visible;opacity:1;isolation:auto;mix-blend-mode:normal;color-interpolation:sRGB;color-interpolation-filters:linearRGB;solid-color:#000000;solid-opacity:1;vector-effect:none;fill:#000000;fill-opacity:1;fill-rule:nonzero;stroke:none;stroke-width:0.80000001;stroke-linecap:butt;stroke-linejoin:round;stroke-miterlimit:4;stroke-dasharray:none;stroke-dashoffset:0;stroke-opacity:1;color-rendering:auto;image-rendering:auto;shape-rendering:auto;text-rendering:auto;enable-background:accumulate"
     d="M 3.4493489,5.4375 C 3.3027168,5.4374654 3.1678166,5.5176561 3.0977864,5.6464844 L 2.8731771,6.0605469 -1.5662761,14.246094 c -0.143533,0.266298 0.049046,0.589403 0.3515626,0.589844 H 14.59375 c 0.146632,3.4e-5 0.281532,-0.08016 0.351562,-0.208985 L 19.609375,6.0273438 C 19.752908,5.761046 19.560328,5.4379404 19.257812,5.4375 Z"
     id="path865"
     inkscape:connector-curvature="0"
     sodipodi:nodetypes="cccccccccc" />
</svg>
