<?xml version="1.0" encoding="UTF-8" standalone="no"?>
<!-- Created with Inkscape (http://www.inkscape.org/) -->

<svg
   xmlns:dc="http://purl.org/dc/elements/1.1/"
   xmlns:cc="http://creativecommons.org/ns#"
   xmlns:rdf="http://www.w3.org/1999/02/22-rdf-syntax-ns#"
   xmlns:svg="http://www.w3.org/2000/svg"
   xmlns="http://www.w3.org/2000/svg"
   xmlns:sodipodi="http://sodipodi.sourceforge.net/DTD/sodipodi-0.dtd"
   xmlns:inkscape="http://www.inkscape.org/namespaces/inkscape"
   width="22.372692mm"
   height="18.39526mm"
   viewBox="0 0 22.372692 18.39526"
   version="1.1"
   id="svg8"
   inkscape:version="0.92.3 (2405546, 2018-03-11)"
   sodipodi:docname="MusicFolderIconFlattened.svg">
  <defs
     id="defs2" />
  <sodipodi:namedview
     id="base"
     pagecolor="#ffffff"
     bordercolor="#666666"
     borderopacity="1.0"
     inkscape:pageopacity="0.0"
     inkscape:pageshadow="2"
     inkscape:zoom="5.6568543"
     inkscape:cx="52.289507"
     inkscape:cy="44.561113"
     inkscape:document-units="mm"
     inkscape:current-layer="svg8"
     showgrid="false"
     fit-margin-top="0"
     fit-margin-left="0"
     fit-margin-right="0"
     fit-margin-bottom="0"
     inkscape:window-width="1920"
     inkscape:window-height="1137"
     inkscape:window-x="-8"
     inkscape:window-y="32"
     inkscape:window-maximized="1" />
  <metadata
     id="metadata5">
    <rdf:RDF>
      <cc:Work
         rdf:about="">
        <dc:format>image/svg+xml</dc:format>
        <dc:type
           rdf:resource="http://purl.org/dc/dcmitype/StillImage" />
        <dc:title></dc:title>
      </cc:Work>
    </rdf:RDF>
  </metadata>
  <path
     style="color:#000000;font-style:normal;font-variant:normal;font-weight:normal;font-stretch:normal;font-size:medium;line-height:normal;font-family:sans-serif;font-variant-ligatures:normal;font-variant-position:normal;font-variant-caps:normal;font-variant-numeric:normal;font-variant-alternates:normal;font-feature-settings:normal;text-indent:0;text-align:start;text-decoration:none;text-decoration-line:none;text-decoration-style:solid;text-decoration-color:#000000;letter-spacing:normal;word-spacing:normal;text-transform:none;writing-mode:lr-tb;direction:ltr;text-orientation:mixed;dominant-baseline:auto;baseline-shift:baseline;text-anchor:start;white-space:normal;shape-padding:0;clip-rule:nonzero;display:inline;overflow:visible;visibility:visible;opacity:1;isolation:auto;mix-blend-mode:normal;color-interpolation:sRGB;color-interpolation-filters:linearRGB;solid-color:#000000;solid-opacity:1;vector-effect:none;fill:#000000;fill-opacity:1;fill-rule:nonzero;stroke:none;stroke-width:0.80000001;stroke-linecap:butt;stroke-linejoin:round;stroke-miterlimit:4;stroke-dasharray:none;stroke-dashoffset:0;stroke-opacity:1;color-rendering:auto;image-rendering:auto;shape-rendering:auto;text-rendering:auto;enable-background:accumulate"
     d="M 15.119491,0 6.9406618,1.949235 V 8.6454669 H 7.7421633 V 5.6647704 L 14.317989,4.0974243 v 4.5480426 h 0.801502 z M 14.317989,1.8076416 V 2.4809855 L 7.7421633,4.0483316 V 3.374471 Z M 0.40049266,3.7041666 A 0.40003999,0.40003999 0 0 0 2.5607897e-7,4.1041422 V 4.5185872 17.994767 A 0.40003999,0.40003999 0 0 0 0.40049266,18.395259 H 1.5001671 17.26768 17.30902 c 0.146632,3.4e-5 0.28137,-0.07995 0.3514,-0.208772 l 4.663798,-8.5994754 c 0.143533,-0.2662978 -0.04888,-0.5897044 -0.3514,-0.5901449 H 17.666105 V 5.4932047 A 0.40003999,0.40003999 0 0 0 17.26768,5.0947794 H 15.447636 V 5.893697 h 1.419552 V 8.9968667 H 6.1644818 C 6.0178497,8.996832 5.8831122,9.0773281 5.813082,9.2061563 L 5.5882896,9.6200845 1.2629723,17.594791 H 0.80098501 V 4.5185872 4.5046345 H 4.3459882 L 5.752104,5.7898274 A 0.40003999,0.40003999 0 0 0 6.0218549,5.893697 H 6.6125166 L 6.6119874,5.0947794 H 6.1779178 L 4.769735,3.8095865 A 0.40003999,0.40003999 0 0 0 4.499984,3.7041666 Z M 11.545549,5.0947794 8.1917483,5.893697 H 13.990361 V 5.0947794 Z M 4.3185997,11.224121 c -1.2318341,0.361561 -2.15026,1.248708 -2.1502563,2.166793 -1.21e-5,0.384678 0.1630562,0.720779 0.4408,0.985986 z"
     id="path863"
     inkscape:connector-curvature="0" />
</svg>
